<?xml version="1.0" encoding="UTF-8" standalone="no"?>
<!-- Created with Inkscape (http://www.inkscape.org/) -->

<svg
   width="210mm"
   height="150mm"
   viewBox="0 0 210 150"
   version="1.1"
   id="svg5"
   inkscape:version="1.1.1 (3bf5ae0d25, 2021-09-20)"
   sodipodi:docname="drawing.svg"
   xmlns:inkscape="http://www.inkscape.org/namespaces/inkscape"
   xmlns:sodipodi="http://sodipodi.sourceforge.net/DTD/sodipodi-0.dtd"
   xmlns="http://www.w3.org/2000/svg"
   xmlns:svg="http://www.w3.org/2000/svg">
  <sodipodi:namedview
     id="namedview7"
     pagecolor="#ffffff"
     bordercolor="#666666"
     borderopacity="1.0"
     inkscape:pageshadow="2"
     inkscape:pageopacity="0.0"
     inkscape:pagecheckerboard="0"
     inkscape:document-units="mm"
     showgrid="false"
     inkscape:zoom="0.46324355"
     inkscape:cx="182.40945"
     inkscape:cy="386.40581"
     inkscape:window-width="1284"
     inkscape:window-height="728"
     inkscape:window-x="97"
     inkscape:window-y="24"
     inkscape:window-maximized="0"
     inkscape:current-layer="layer1" />
  <defs
     id="defs2" />
  <g
     inkscape:label="Layer 1"
     inkscape:groupmode="layer"
     id="layer1">
    <path
       style="fill:#ff0000;stroke-width:0.264583"
       id="path316"
       d="m 138.91071,105.31581 c 1.58984,-4.27059 4.00825,-8.165608 6.63773,-11.864157 1.07973,-1.518708 2.1526,-3.045174 3.31992,-4.497641 1.31412,-1.635131 2.74588,-3.172132 4.11882,-4.758198 5.00683,-5.488705 10.68177,-10.361811 16.76486,-14.62187 2.83194,-1.983242 4.48884,-2.934779 7.41572,-4.723297 8.17,-4.855183 15.39119,-11.143501 22.30984,-17.616362 3.27847,-3.03121 6.3188,-6.330948 9.67873,-9.27535 0.83309,-0.730057 3.23721,-2.63007 4.10457,-3.321492 2.21388,-1.83152 4.58054,-3.477577 7.06572,-4.920088 0.23874,-0.138579 -0.92418,0.592976 -0.6686,0.488661 0.78052,-0.318566 1.50054,-0.769178 2.25876,-1.137682 0.68589,-0.333343 1.38207,-0.64508 2.0731,-0.967621 2.18452,-1.111295 4.52035,-1.810276 6.89114,-2.383595 0,0 3.06114,-2.335459 3.06114,-2.335459 v 0 c -2.40329,0.565283 -4.78398,1.233278 -6.99365,2.366072 -6.0594,2.810206 -11.99007,6.029318 -17.16617,10.285498 -1.15972,0.929298 -2.96863,2.354148 -4.07948,3.342952 -3.30724,2.943865 -6.31136,6.219624 -9.55946,9.226261 -6.91173,6.470841 -14.12728,12.738862 -22.32446,17.544026 -2.9695,1.830366 -4.47849,2.696385 -7.34766,4.729866 -6.03141,4.274677 -11.64798,9.159595 -16.61165,14.6412 -1.39014,1.602833 -2.83696,3.15821 -4.17041,4.808501 -1.18598,1.467776 -2.28131,3.007063 -3.38273,4.539311 -2.73306,3.802107 -5.24593,7.810504 -6.92671,12.200614 0,0 3.53093,-1.75015 3.53093,-1.75015 z" />
    <path
       style="fill:#00ff00;stroke-width:0.264583"
       id="path384"
       d="m 127.09575,104.40702 c -0.7653,-2.56811 -2.48258,-5.209284 -2.65414,-7.914135 -0.0393,-0.619234 0.0463,-1.240094 0.0695,-1.860143 0.77186,-4.947811 4.00409,-8.132847 7.56938,-11.334959 3.00007,-2.619782 6.29449,-4.847981 9.32168,-7.433534 2.48013,-2.370408 5.15018,-4.524846 7.58541,-6.940955 2.66937,-2.793447 2.99988,-5.260819 3.35026,-8.960398 0.30251,-3.810066 0.14992,-7.622439 -0.30685,-11.410452 -0.34368,-2.335265 -1.44158,-4.399804 -2.34064,-6.541161 0.0387,-0.129114 0.577,-2.626839 1.51215,-1.535306 0.31058,0.362516 -1.3966,0.975865 -0.93236,1.087025 0.90125,0.215799 1.79423,-0.466757 2.69975,-0.663832 1.97042,-0.428842 3.13066,-0.575442 5.0923,-0.873575 4.93299,-0.52479 9.84504,-1.326422 14.67699,-2.452208 4.6101,-1.562219 8.64865,-4.378849 12.5322,-7.251851 2.03982,-1.372558 3.63606,-3.134252 5.05898,-5.111631 1.63419,-1.878277 3.24298,-3.753708 4.52312,-5.895708 0.8888,-1.729327 2.34652,-3.807016 2.28089,-5.842591 -0.0109,-0.337498 -0.11375,-0.6657 -0.17062,-0.99855 -0.11866,-0.274535 -0.23732,-0.549071 -0.35598,-0.823606 0,0 -3.41616,1.920479 -3.41616,1.920479 v 0 c 0.10614,0.244063 0.21228,0.488127 0.31842,0.73219 0.0439,0.299934 0.13277,0.596667 0.13186,0.899804 -0.006,1.979318 -1.44878,3.989689 -2.31805,5.67238 -1.3334,2.114831 -2.97799,3.966611 -4.57233,5.884493 -1.42291,1.94309 -3.07306,3.627378 -5.07564,4.989802 -0.44422,0.328353 -1.81829,1.347351 -2.25751,1.65826 -0.46192,0.32698 -1.89274,0.689417 -1.39776,0.963779 0.52362,0.290232 2.12593,-1.096415 1.57313,-0.866571 -0.64135,0.266666 -1.22679,0.65174 -1.84019,0.977612 -0.66297,0.261072 -1.32594,0.522144 -1.98891,0.783219 -4.82617,1.182923 -9.745,2.013064 -14.68996,2.501654 -1.98069,0.302363 -3.14355,0.454848 -5.13523,0.867175 -0.90314,0.186973 -1.83718,0.285668 -2.69621,0.621368 -1.92978,0.754137 -3.80134,1.659821 -5.63064,2.632671 -0.45648,0.24276 -0.90809,0.561363 -1.1901,0.994693 -0.18931,0.290893 -0.0864,0.688742 -0.1296,1.033113 0.87946,2.108406 1.97558,4.136022 2.32365,6.430933 0.49454,3.753988 0.65232,7.538543 0.29951,11.316557 -0.39439,3.648284 -0.81213,6.010265 -3.47111,8.724411 -2.44934,2.392772 -5.10634,4.559779 -7.5932,6.914123 -3.01768,2.558889 -6.30349,4.769194 -9.24905,7.417054 -3.60467,3.305984 -6.80075,6.574774 -7.49916,11.636989 -0.0163,0.646676 -0.096,1.294855 -0.049,1.940028 0.20541,2.819634 1.9536,5.283444 2.61085,7.990224 0,0 3.43036,-1.87887 3.43036,-1.87887 z" />
    <circle
       id="path419"
       style="fill:#000080;stroke:#000000;stroke-width:0.264583"
       cx="94.240379"
       cy="124.51153"
       r="0.076077133" />
    <circle
       id="path421"
       style="fill:#000080;stroke:#000000;stroke-width:0.264583"
       cx="94.240379"
       cy="124.51153"
       r="0.076077133" />
    <path
       style="fill:#000080;stroke-width:0.264583"
       id="path423"
       d="m 96.004939,122.63137 c 0.008,-0.49681 -0.0145,-0.99512 0.0248,-1.49045 0.1927,-2.42567 0.5699,-4.46818 1.01065,-6.90723 0.8218,-4.54776 1.77413,-9.07227 2.6995,-13.59967 1.426921,-7.140796 3.213121,-14.200448 4.498521,-21.369333 0.57058,-3.376472 0.81721,-6.796344 0.90233,-10.21634 -0.0327,-1.014437 0.0909,-2.022179 0.18102,-3.029964 0.0311,-0.348329 -0.0429,-0.720796 0.0868,-1.045554 0.37577,-0.940482 1.53465,-1.836144 2.19674,-2.455047 2.7958,-2.146991 8.34044,-4.504365 13.26815,-7.000944 2.86625,-1.563804 5.75964,-3.079742 8.57668,-4.732194 0.0568,-0.0333 5.714,-3.267726 7.19352,-4.416436 0.5514,-0.428117 1.03864,-0.93304 1.55796,-1.399561 1.41395,-1.44067 3.01837,-2.929972 3.94959,-4.76331 0.41932,-0.825518 0.66711,-1.72748 0.9983,-2.592128 1.34366,-3.128147 2.28492,-6.417146 3.15954,-9.702493 0.25677,-1.621311 1.37131,-5.169282 0.77007,-6.713681 -0.20306,-0.52157 -0.60301,-0.943105 -0.90451,-1.414657 -1.63073,-1.713232 -0.89751,-1.079499 -2.86289,-2.56212 -0.63437,-0.478547 -1.98551,-1.016281 -1.8184,-2.156857 0.12066,-0.823549 1.5333,-2.076959 1.96228,-2.523408 -0.22703,-1.473552 3.22119,-1.034334 3.13212,-2.333153 -0.0432,-0.6296708 -2.19569,0.753279 -1.61197,0.993322 0.62707,0.257873 1.20646,-0.619797 1.82036,-0.907627 1.78909,-0.8388238 2.33969,-1.011788 4.23982,-1.7476093 3.04307,-1.2253664 6.22475,-2.0361415 9.32175,-3.1018932 0,0 3.04619,-2.3749821 3.04619,-2.3749821 v 0 c -3.11071,1.1226576 -6.32665,1.9271939 -9.40273,3.1529113 -5.02227,1.8852364 -10.03415,4.1854213 -14.0675,7.7962273 -0.67324,0.771274 -1.81237,1.737024 -1.83435,2.930802 -0.0231,1.257772 1.19384,1.713528 1.98914,2.3058 1.87662,1.39755 1.22236,0.842673 2.76093,2.46544 0.2628,0.424742 0.61842,0.804575 0.78841,1.274228 0.5114,1.412881 -0.5392,5.072872 -0.79888,6.572935 -0.87589,3.278299 -1.81904,6.558103 -3.1895,9.668986 -0.16294,0.408993 -0.80648,2.072047 -1.05531,2.52961 -0.96619,1.776695 -2.49034,3.238884 -3.91339,4.635643 -0.52363,0.450368 -1.02064,0.933675 -1.57088,1.351105 -0.56384,0.427747 -1.2396,0.705882 -1.76525,1.179777 -0.27192,0.245152 1.29843,-0.673827 0.98827,-0.479293 -2.77933,1.743213 -5.76838,3.133934 -8.60407,4.777894 -6.64895,3.378226 -13.59056,6.319456 -19.64705,10.740694 -0.95388,0.956754 -1.71048,1.460765 -2.16285,2.742557 -0.11653,0.330189 -0.0624,0.697513 -0.0931,1.046319 -0.0891,1.01301 -0.18944,2.028145 -0.15357,3.046801 -0.0577,3.380573 -0.25425,6.761067 -0.80201,10.102231 -1.194201,7.14507 -2.932961,14.176033 -4.339971,21.280132 -0.92434,4.53701 -1.83501,9.07719 -2.72501,13.62108 -0.54642,2.78973 -0.89766,4.38007 -1.21759,7.06543 -0.0614,0.51575 -0.0745,1.03612 -0.11182,1.55419 0,0 3.52911,-1.79818 3.52911,-1.79818 z" />
    <path
       style="fill:#800080;stroke-width:0.264583"
       id="path458"
       d="m 82.422629,117.55244 c 0.56048,-4.97368 1.72622,-9.92658 1.87728,-14.94349 0.0306,-1.01727 -0.0446,-2.03498 -0.0669,-3.052465 -0.29544,-2.432061 -0.22477,-3.187981 -1.13983,-5.474915 -1.24961,-3.122993 -3.57674,-5.593749 -5.69938,-8.133302 -0.82937,-0.992267 -1.66159,-1.982144 -2.49238,-2.973218 -2.30278,-3.212692 -6.61156,-7.353395 -7.4058,-11.368601 -0.12117,-0.612568 -0.0759,-1.246568 -0.11379,-1.869852 0.14129,-0.658048 0.23003,-1.329616 0.42388,-1.974141 0.40854,-1.35836 1.34009,-3.375568 1.91837,-4.630613 1.0075,-2.18661 2.15142,-4.273325 3.32564,-6.372905 1.0451,-1.681991 2.01353,-3.414128 2.85886,-5.205632 0.25232,-0.534744 0.93314,-2.046518 1.07037,-2.674853 0.10614,-0.486016 0.10119,-0.989782 0.15178,-1.484672 -0.001,-3.141509 -1.51885,-5.967757 -3.16827,-8.548743 -1.31916,-2.066259 -3.14496,-3.721315 -5.03308,-5.255678 -2.42174,-2.083213 -3.76731,-4.21318 -4.78147,-7.209919 -0.76907,-2.090772 -0.5744,-4.239004 -0.58105,-6.408791 -0.25165,-0.539621 -0.40618,-1.136276 -0.75493,-1.618865 -1.9193,-2.655888 -5.14287,-3.769681 -8.12099,-4.696536 -3.34294,-1.040396 -5.75286,-1.484233 -9.16792,-2.2248 -3.99815,-0.742648 -8.02383,-1.319346 -12.04093,-1.9465345 0,0 -2.98949,2.1041935 -2.98949,2.1041935 v 0 c 4.04282,0.591384 8.09327,1.138424 12.11449,1.86773 3.51916,0.753912 5.65959,1.122077 9.0917,2.216703 2.81225,0.896932 5.98679,2.007469 7.7707,4.563724 0.3099,0.44408 0.4267,0.99545 0.64005,1.493174 -0.0354,2.219667 -0.16752,4.394224 0.65157,6.51992 1.08473,3.084494 2.41943,5.2079 4.8919,7.39508 1.86031,1.503524 3.62805,3.154299 4.96082,5.15697 1.63931,2.493857 3.13402,5.230328 3.05619,8.303369 -0.0666,0.470839 -0.0873,0.950494 -0.19982,1.41252 -0.64207,2.636713 -2.62421,5.421572 -3.8815,7.790175 -1.15159,2.104786 -2.27187,4.199498 -3.27034,6.382795 -0.60632,1.325787 -1.53017,3.298031 -1.93455,4.731041 -0.19098,0.676764 -0.26001,1.382143 -0.39001,2.073214 0.0563,0.65056 0.0287,1.313931 0.16897,1.951677 0.90333,4.106937 5.25091,8.093679 7.62725,11.397742 2.68687,3.218225 6.46769,7.118356 8.02296,11.031075 0.88581,2.228492 0.82462,3.000398 1.11773,5.372233 0.0174,1.006 0.0844,2.01236 0.0521,3.01799 -0.16188,5.04609 -1.23384,10.05138 -2.06678,15.01166 0,0 3.50659,-1.72446 3.50659,-1.72446 z" />
    <path
       style="fill:#ffff00;stroke-width:0.264583"
       id="path642"
       d="m 101.24317,9.2466978 c -3.225411,2.0589332 -6.171021,4.8367082 -8.119211,8.1630692 -0.40333,0.688655 -0.70629,1.431376 -1.05943,2.147064 -0.83868,2.468511 -1.40063,5.160733 -0.878,7.768648 0.0898,0.44813 0.25389,0.878115 0.38084,1.317175 0.90136,2.215666 0.86233,4.7171 -0.009,6.948866 -0.17553,0.449389 -0.429,0.864293 -0.6435,1.29644 -0.97663,1.594106 -2.40734,2.827909 -3.52354,4.312647 -0.57795,0.768774 -0.71904,1.076743 -1.18417,1.897169 -0.86725,1.757886 -1.17909,3.723044 -1.38912,5.653899 -0.22612,2.560278 -0.34695,5.138515 -0.22852,7.70704 0.34925,2.308085 1.9096,3.707397 3.85452,4.760092 0.0746,0.06122 0.24272,0.08904 0.22376,0.18365 -0.0195,0.09703 -0.20613,0.03243 -0.2802,0.09804 -0.28151,0.249314 -0.92062,1.283435 -1.02112,1.466265 -0.56373,1.025496 -0.78939,1.693238 -1.22659,2.788287 -1.10666,2.937701 -1.47877,5.402096 -1.05546,8.498533 0.96627,3.328033 2.00962,6.615158 2.85697,9.977594 0.67297,2.298964 1.35176,4.604993 2.32605,6.796706 1.57115,2.821599 1.80085,5.998565 2.04622,9.151298 0.15563,3.4469 0.33643,6.90914 0.15219,10.35807 -0.19534,2.47021 -0.84633,4.85292 -1.88665,7.09501 -0.95476,1.89108 -1.77692,3.84121 -2.80822,5.6942 -0.57505,1.24063 -1.27018,2.43824 -2.09416,3.52991 0,0 3.61151,-1.56503 3.61151,-1.56503 v 0 c 0.77427,-1.13133 1.46559,-2.3186 2.04647,-3.5615 1.00504,-1.87038 1.84346,-3.82097 2.79051,-5.72024 0.99062,-2.29445 1.6263,-4.71071 1.79434,-7.2119 0.13828,-3.45656 -0.0728,-6.91709 -0.23404,-10.369715 -0.24919,-3.203718 -0.43512,-6.436678 -2.02245,-9.312564 -0.95776,-2.172165 -1.64374,-4.448027 -2.34146,-6.714275 -0.86234,-3.343963 -1.92958,-6.61247 -2.81361,-9.946958 -0.12032,-1.022924 -0.22833,-1.565592 -0.18516,-2.582299 0.0835,-1.966888 0.64148,-3.892968 1.31206,-5.729478 0.50075,-1.187201 0.64232,-1.643845 1.29615,-2.736109 0.28257,-0.47204 1.32684,-1.419204 1.09679,-2.114846 -0.0392,-0.118684 -0.19696,-0.153988 -0.29544,-0.230981 -1.88217,-0.91757 -3.39899,-2.167763 -3.69468,-4.377841 -0.10613,-2.552166 0.0161,-5.111694 0.26376,-7.653332 0.25239,-1.88827 0.56994,-3.812725 1.46726,-5.51647 1.33499,-2.249818 3.25049,-4.024614 4.6593,-6.222995 0.20549,-0.452294 0.44904,-0.889161 0.61646,-1.356881 0.82548,-2.306063 0.83279,-4.870775 -0.0763,-7.141834 -0.83423,-3.071517 -0.57114,-5.792653 0.53468,-8.789266 0.35583,-0.697679 0.66193,-1.423036 1.06747,-2.093037 2.01468,-3.328459 5.019081,-6.0516893 8.310421,-8.0700941 0,0 -3.63735,1.4079709 -3.63735,1.4079709 z" />
    <path
       style="fill:#ff00ff;stroke-width:0.264583"
       id="path842"
       d="m 68.015499,116.28184 c 0.11361,-4.24476 0.29918,-8.48445 0.0758,-12.72849 -0.13713,-1.02969 -0.11088,-1.73913 -0.6464,-2.64204 -1.03267,-1.741109 -4.10731,-2.913438 -5.86973,-3.727103 -1.53103,-0.699929 -3.27928,-1.307653 -4.43382,-2.615756 -1.22969,-1.393256 -1.69381,-3.205911 -2.17291,-4.940834 -0.85618,-3.759343 -0.7025,-7.60127 -0.52297,-11.418165 0.0375,-4.014079 1.66423,-7.684834 2.80024,-11.456509 0.12653,-0.546809 0.35744,-1.079605 0.3796,-1.640424 0.11112,-2.812966 -1.82683,-5.410973 -3.48199,-7.482173 -1.05181,-1.268881 -4.26098,-3.587131 -4.23831,-5.341538 0.009,-0.670095 0.33479,-1.297813 0.50219,-1.94672 1.59383,-4.055906 4.50368,-7.35861 6.68685,-11.076691 -0.22549,-0.607925 -0.34062,-1.269135 -0.67647,-1.823778 -0.83352,-1.376561 -2.20072,-2.303807 -3.48541,-3.189007 -1.99824,-1.37686 -4.1386,-2.561095 -6.20386,-3.833397 -2.58523,-1.410819 -4.40693,-3.739278 -6.65192,-5.560016 -3.46853,-2.466394 -7.65754,-3.495656 -11.77159,-4.292147 -3.06097,-0.546754 -6.15118,-0.888453 -9.25227,-1.090558 0,0 -3.14641,2.258662 -3.14641,2.258662 v 0 c 3.12322,0.153895 6.23921,0.446297 9.32302,0.978222 4.0406,0.775317 8.16324,1.788602 11.57493,4.197435 2.25704,1.843435 4.10584,4.181502 6.73729,5.568051 2.07638,1.242496 4.22053,2.408721 6.21394,3.783608 1.20213,0.82913 2.53303,1.737743 3.31112,3.033553 0.27684,0.461021 0.34415,1.018956 0.51622,1.528432 -2.21004,3.713282 -5.05623,7.078075 -6.59814,11.163882 -0.15284,0.723593 -0.46918,1.431298 -0.45851,2.170777 0.0272,1.883224 3.15631,4.111622 4.30003,5.45674 1.62768,1.980594 3.50702,4.427614 3.33844,7.161223 -0.034,0.551706 -0.2534,1.076076 -0.3801,1.614114 -1.13707,3.795892 -2.7132,7.504917 -2.75417,11.538283 -0.18074,3.852524 -0.27428,7.731258 0.58609,11.522012 0.50256,1.804453 1.00412,3.692665 2.26474,5.154181 1.16721,1.353227 2.9455,1.986132 4.52177,2.68111 1.63839,0.747001 4.66636,1.918101 5.64813,3.519511 0.51429,0.83889 0.5017,1.53509 0.64681,2.50139 0.27763,4.25623 0.12672,8.51917 -0.20554,12.76937 0,0 3.5233,-1.79521 3.5233,-1.79521 z" />
    <path
       style="fill:#ff6600;stroke-width:0.264583"
       id="path910"
       d="m 55.441389,115.51018 c 0.0558,-2.78542 -0.1894,-5.60196 -1.48718,-8.12835 -0.31074,-0.60493 -0.73037,-1.14741 -1.09555,-1.72112 -2.4373,-3.15628 -5.92137,-5.08287 -9.33475,-6.994464 -1.6105,-1.222031 -3.89594,-1.146754 -5.60223,-2.068824 -1.06857,-0.577448 -1.38266,-1.127223 -2.14199,-2.032799 -1.66545,-2.527052 -1.92585,-5.25643 -1.91221,-8.19291 -0.0886,-1.324026 0.21675,-2.872431 -0.52223,-4.082429 -1.1396,-1.865955 -3.70834,-2.641285 -5.5467,-3.489631 -5.40061,-2.075945 -10.76735,-4.235392 -15.77642,-7.150174 -3.1929898,-1.816741 -3.8539498,-2.635801 -4.4706198,-6.204408 -0.0403,-0.415589 -0.0903,-0.83035 -0.12077,-1.246767 -0.0591,-0.805902 -0.0333,-1.379667 -0.14477,-2.170359 -0.12168,-0.86283 -0.36135,-1.722882 -0.51691,-2.581187 -0.55793,-2.491177 0.65808,-4.71179 1.80665,-6.844012 1.36785,-2.737847 2.8747998,-5.64689 3.2316698,-8.74019 0.0618,-0.535342 0.0292,-1.077388 0.0439,-1.616083 -0.27352,-3.362893 -2.6507998,-5.717204 -4.8941898,-7.997139 -1.66861,-1.551916 -3.21489,-3.227909 -4.55466,-5.07074 0,0 -3.33932997,1.975432 -3.33932997,1.975432 v 0 c 1.35628,1.858325 2.91617997,3.546557 4.60928997,5.10539 2.17931,2.197944 4.51648,4.454009 4.74391,7.722362 -0.0219,0.518318 -2.6e-4,1.040288 -0.0656,1.554953 -0.38882,3.06859 -1.87988,5.936096 -3.27756,8.639265 -1.18028,2.225813 -2.35608,4.525235 -1.75567,7.107528 0.15146,0.84889 0.37903,1.697911 0.50599,2.549562 0.11371,0.762852 0.10324,1.385213 0.16913,2.161292 0.0361,0.424809 0.0906,0.847841 0.13596,1.271762 0.67834,3.676388 1.36472,4.639103 4.71019,6.451904 5.0611998,2.863654 10.4513198,5.005242 15.8516398,7.137492 1.60677,0.769631 4.24633,1.660817 5.25456,3.311081 0.71228,1.165865 0.39042,2.680168 0.48767,3.952907 -0.0186,2.97231 0.34711,5.892085 2.04317,8.428397 0.76937,0.931891 1.16848,1.585235 2.24616,2.205688 1.71595,0.987933 3.9525,0.800092 5.59278,2.005821 3.39102,1.83889 6.81536,3.74081 9.25376,6.81949 0.35112,0.55394 0.75579,1.07736 1.05335,1.66181 1.27644,2.50719 1.46197,5.30198 1.31375,8.05576 0,0 3.50585,-1.78631 3.50585,-1.78631 z" />
  </g>
</svg>
